<svg width="186" height="24" viewBox="0 0 186 24" fill="none" xmlns="http://www.w3.org/2000/svg">
<path d="M47.4686 1.20605V5.29909H36.84V10.1927H46.4819V14.1763H36.84V19.5095H47.4686V23.639H32.2369V1.20605H47.4686Z" fill="white"/>
<path d="M49.8777 7.30727H54.4078V8.80472C55.2851 7.78338 56.8917 6.9425 58.7921 6.9425C62.4815 6.9425 64.5642 9.35379 64.5642 12.9707V23.6391H60.034V13.921C60.034 12.1932 59.1568 11.0413 57.3678 11.0413C56.6899 11.0242 56.0267 11.2396 55.4882 11.6517C54.9497 12.0638 54.5685 12.6478 54.4078 13.3067V23.6468H49.8777V7.30727Z" fill="white"/>
<path d="M77.4923 11.765C76.7985 11.3864 76.0173 11.197 75.2272 11.2159C73.6915 11.2159 72.4515 12.0203 72.1233 13.5197V23.641H67.5931V7.30721H72.1233V8.91409C72.5086 8.29784 73.0472 7.79218 73.6865 7.44657C74.3258 7.10097 75.0439 6.92726 75.7704 6.94244C76.5382 6.94244 77.2312 7.08835 77.4865 7.23426L77.4923 11.765Z" fill="white"/>
<path d="M86.5871 23.9981C81.8381 23.9981 78.5883 20.4906 78.5883 15.4857C78.5883 10.4443 81.8381 6.93677 86.5871 6.93677C91.336 6.93677 94.5878 10.4443 94.5878 15.4857C94.5878 20.4964 91.336 23.9981 86.5871 23.9981ZM86.5871 10.7726C84.3239 10.7726 83.0801 12.7461 83.0801 15.4857C83.0801 18.1888 84.3239 20.1623 86.5871 20.1623C88.8502 20.1623 90.0941 18.1888 90.0941 15.4857C90.0941 12.7519 88.8521 10.7783 86.5871 10.7783V10.7726Z" fill="white"/>
<path d="M102.001 23.639H97.4708V1.20605H102.001V23.639Z" fill="white"/>
<path d="M110.476 23.639H105.946V1.20605H110.476V23.639Z" fill="white"/>
<path d="M129.579 1.20605L133.451 16.2958L137.14 1.20605H141.747L135.904 23.639H131.626L127.681 8.84114L123.734 23.639H119.461L113.616 1.20605H118.329L121.976 16.2958L125.923 1.20605H129.579Z" fill="white"/>
<path d="M145.54 5.18393C144.08 5.18393 142.838 4.1242 142.838 2.59027C142.838 1.09665 144.08 0.000442014 145.54 0.000442014C145.886 -0.00591237 146.23 0.0563016 146.551 0.183491C146.873 0.310681 147.166 0.500327 147.414 0.741477C147.662 0.982628 147.86 1.27051 147.996 1.58849C148.132 1.90647 148.203 2.24825 148.207 2.59411C148.207 4.12804 146.965 5.18393 145.54 5.18393ZM147.805 23.6391H143.275V7.30724H147.805V23.6391Z" fill="white"/>
<path d="M150.324 18.158C151.896 19.5825 154.163 20.4234 155.95 20.4234C157.294 20.4234 158.361 20.0222 158.361 19.0354C158.361 18.1216 157.632 17.7933 156.499 17.4266L154.927 16.9889C152.078 16.221 150.289 14.8771 150.289 12.0569C150.289 8.87959 153.028 6.9425 156.681 6.9425C158.764 6.9425 160.444 7.45317 161.904 8.40348V12.5311C160.444 11.3619 158.764 10.523 156.9 10.523C155.658 10.523 154.716 10.9971 154.716 11.9033C154.716 12.7807 155.338 13.0725 156.47 13.4391L158.296 13.9882C161.402 14.8636 162.826 16.3265 162.826 18.9567C162.826 22.2434 159.947 23.9981 156.107 23.9981C153.954 23.9981 151.725 23.4222 150.335 22.3547L150.324 18.158Z" fill="white"/>
<path d="M168.479 16.5108C168.844 19.1774 170.782 20.2736 173.191 20.2736C174.98 20.2736 176.263 19.8724 177.865 18.8491V22.5755C176.522 23.5622 174.689 24 172.491 24C167.523 24 164.125 20.7843 164.125 15.5969C164.125 10.4826 167.341 6.9386 171.804 6.9386C176.553 6.9386 179 10.2272 179 15.0498V16.5108H168.479ZM168.625 13.5504H174.798C174.689 11.7976 173.702 10.5555 171.919 10.5555C170.414 10.5594 169.135 11.5077 168.625 13.5543V13.5504Z" fill="white"/>
<path d="M180.345 7.83294V11.0908H179.467V7.83294H178.375V7.05212H181.434V7.83294H180.345Z" fill="white"/>
<path d="M185.048 8.44025H185.03L184.735 9.02984L183.951 10.4587L183.183 9.03516L182.877 8.39775H182.86V11.089H182.035V7.05212H182.964L183.951 8.94486H183.963L184.938 7.05212H185.873V11.0908H185.048V8.44025Z" fill="white"/>
<path d="M19.756 1.19275H2.68737C1.20318 1.19275 0 2.39609 0 3.88048V20.9514C0 22.4358 1.20318 23.6392 2.68737 23.6392H19.756C21.2402 23.6392 22.4434 22.4358 22.4434 20.9514V3.88048C22.4434 2.39609 21.2402 1.19275 19.756 1.19275Z" fill="white"/>
<path d="M6.34795 23.6391H0V17.2903C0.833696 17.29 1.65927 17.4541 2.42956 17.773C3.19984 18.092 3.89973 18.5597 4.48924 19.1492C5.07876 19.7388 5.54633 20.4388 5.86526 21.2092C6.18418 21.9796 6.34821 22.8053 6.34795 23.6391Z" fill="#052B52"/>
<path d="M12.4061 4.62329L5.97364 11.0566C5.711 10.778 5.39415 10.5561 5.04258 10.4046C4.69101 10.253 4.31215 10.175 3.92932 10.1754H0L5.5475 4.62329H12.4061Z" fill="#FFE26C"/>
<path d="M19.0036 7.43005V8.06359L10.1737 16.9043H9.5364C9.16804 16.9046 8.80324 16.8322 8.46288 16.6913C8.12251 16.5505 7.81325 16.3439 7.55278 16.0834C7.29231 15.8229 7.08575 15.5136 6.9449 15.1731C6.80405 14.8327 6.73168 14.4679 6.73193 14.0995V13.4736L15.5791 4.62329H16.2049C16.9479 4.62532 17.6597 4.92193 18.1844 5.44808C18.709 5.97423 19.0036 6.68698 19.0036 7.43005Z" fill="#FFE26C"/>
<path d="M19.0035 11.2333V18.0947L13.456 23.6391V19.7112C13.4576 19.3277 13.3803 18.948 13.2291 18.5956C13.0779 18.2433 12.8559 17.9257 12.5768 17.6627L19.0035 11.2333Z" fill="#FFE26C"/>
<path d="M22.4452 3.99748V4.62334L19.0035 8.06364V7.4301C19.0035 6.68703 18.7088 5.97428 18.1842 5.44813C17.6596 4.92198 16.9477 4.62537 16.2048 4.62334H15.579L19.0035 1.19264H19.6311C20.0002 1.19163 20.3658 1.26342 20.707 1.4039C21.0483 1.54438 21.3585 1.75079 21.6198 2.01132C21.8812 2.27185 22.0887 2.58138 22.2303 2.92219C22.3719 3.263 22.445 3.62841 22.4452 3.99748Z" fill="#FFE26C"/>
<path d="M19.0036 1.19263L15.5791 4.62333L6.73192 13.4737V12.9764C6.73333 12.2632 6.46208 11.5764 5.97369 11.0566L12.4061 4.62333L15.8383 1.19263H19.0036Z" fill="#052B52"/>
<path d="M15.8383 1.19263L12.4061 4.62333H5.54755L8.97778 1.19263H15.8383Z" fill="#FFE26C"/>
<path d="M8.97774 1.19275L5.5475 4.62345L0 10.1755V3.99759C-8.63071e-08 3.62909 0.0726031 3.26421 0.213661 2.92378C0.354718 2.58336 0.561465 2.27407 0.822087 2.01359C1.08271 1.75311 1.3921 1.54655 1.73257 1.4057C2.07305 1.26486 2.43793 1.1925 2.80638 1.19275H8.97774Z" fill="#F25F56"/>
<path d="M22.4453 4.62329V7.80058L19.0036 11.2332L12.5769 17.6626C12.0592 17.17 11.372 16.8951 10.6574 16.8947H10.1736L22.4453 4.62329Z" fill="#052B52"/>
<path d="M22.4434 7.80066V14.6601L19.0112 18.0947V11.2333L22.4434 7.80066Z" fill="#FFE26C"/>
<path d="M22.4453 14.6602V20.8323C22.4447 21.5766 22.1489 22.2902 21.6227 22.8165C21.0965 23.3427 20.383 23.6386 19.6389 23.6391H13.4637L19.0035 18.0947L22.4453 14.6602Z" fill="#F25F56"/>
</svg>
